<svg width="40" height="40" viewBox="0 0 40 40" fill="none" xmlns="http://www.w3.org/2000/svg">
<rect width="40" height="40" rx="4" fill="#18E2CE"/>
<path d="M10.625 18.9583L29.375 13.75V26.25L10.625 22.0833V18.9583Z" stroke="white" stroke-width="1.25" stroke-linecap="round" stroke-linejoin="round"/>
<path d="M19.5833 25C19.4739 25.3967 19.2874 25.7679 19.0345 26.0926C18.7816 26.4172 18.4672 26.6888 18.1093 26.892C17.7514 27.0951 17.357 27.2257 16.9486 27.2764C16.5402 27.3271 16.1259 27.2969 15.7292 27.1875C15.3325 27.078 14.9612 26.8915 14.6366 26.6386C14.312 26.3857 14.0403 26.0713 13.8372 25.7134C13.6341 25.3556 13.5034 24.9612 13.4527 24.5528C13.402 24.1444 13.4322 23.73 13.5417 23.3333" stroke="white" stroke-width="1.25" stroke-linecap="round" stroke-linejoin="round"/>
</svg>
